<?xml version="1.0" standalone="no"?><!DOCTYPE svg PUBLIC "-//W3C//DTD SVG 1.1//EN" "http://www.w3.org/Graphics/SVG/1.1/DTD/svg11.dtd"><svg t="1563851558206" class="icon" viewBox="0 0 1024 1024" version="1.1" xmlns="http://www.w3.org/2000/svg" p-id="10340" xmlns:xlink="http://www.w3.org/1999/xlink" width="64" height="64"><defs><style type="text/css"></style></defs><path d="M755.063363 319.427076c-65.74333 0-119.209032-53.465702-119.209032-119.184473L635.854331 62.983473 207.267089 62.983473c-40.072671 0-72.552409 32.504298-72.552409 72.553433l0 752.97633c0 40.049135 32.479739 72.503291 72.552409 72.503291l609.487312 0c40.053228 0 72.529897-32.454156 72.529897-72.503291L889.284297 319.427076 755.063363 319.427076zM769.593288 799.504016l-515.214205 0 0-48.604998 515.214205 0L769.593288 799.504016zM769.593288 643.967614l-515.214205 0L254.379083 595.362616l515.214205 0L769.593288 643.967614zM769.593288 488.431212l-515.214205 0 0-48.604998 515.214205 0L769.593288 488.431212z" p-id="10341" fill="#515151"></path><path d="M682.50993 62.983473l0 137.25913c0 40.049135 32.479739 72.503291 72.553433 72.503291l134.220934 0L682.50993 62.983473z" p-id="10342" fill="#515151"></path></svg>