<?xml version="1.0" standalone="no"?><!DOCTYPE svg PUBLIC "-//W3C//DTD SVG 1.1//EN" "http://www.w3.org/Graphics/SVG/1.1/DTD/svg11.dtd"><svg t="1563849216316" class="icon" viewBox="0 0 1024 1024" version="1.1" xmlns="http://www.w3.org/2000/svg" p-id="9564" xmlns:xlink="http://www.w3.org/1999/xlink" width="64" height="64"><defs><style type="text/css"></style></defs><path d="M483.3317 997.738299l-102.859289 23.127368a127.775514 127.775514 0 0 1-135.953147-56.349002l-56.476778-89.251197a127.775514 127.775514 0 0 0-39.482634-39.610409L59.308655 779.050506a127.775514 127.775514 0 0 1-56.221226-135.761484l23.191256-103.370392a127.775514 127.775514 0 0 0 0-55.837899L3.087429 380.71034a127.775514 127.775514 0 0 1 56.221226-135.761485l89.251197-56.604552a127.775514 127.775514 0 0 0 39.482634-39.61041L244.519264 59.482696A127.775514 127.775514 0 0 1 380.536299 3.133694l102.795401 23.127369a127.775514 127.775514 0 0 0 55.965675 0l102.859289-23.127369a127.775514 127.775514 0 0 1 135.953148 56.349002l56.476777 89.251197a127.775514 127.775514 0 0 0 39.482634 39.61041l89.251197 56.604552a127.775514 127.775514 0 0 1 56.221226 135.761485l-23.191256 103.370391a127.775514 127.775514 0 0 0 0 55.837899l23.191256 103.370392a127.775514 127.775514 0 0 1-56.221226 135.761484l-89.251197 56.604553a127.775514 127.775514 0 0 0-39.482634 39.610409l-56.476777 89.251197a127.775514 127.775514 0 0 1-136.017035 56.349002l-102.795402-23.127368a127.775514 127.775514 0 0 0-55.965675 0z m18.52745-446.95875l-180.482915 180.482914a21.274623 21.274623 0 0 0 23.766246 34.499389s300.655785-130.331025 304.105724-131.928218a26.449531 26.449531 0 0 0 14.566409-17.058032l48.618583-175.371893 9.838715 9.710939a26.066205 26.066205 0 1 0 36.927123-36.991011L609.190582 264.115183a26.066205 26.066205 0 1 0-36.991012 36.927123l9.710939 9.710939-175.691332 48.874135a26.896746 26.896746 0 0 0-17.058031 15.013623l-131.672668 303.914061a21.274623 21.274623 0 0 0 34.946603 23.127368l180.163476-180.163476a53.28239 53.28239 0 1 1 29.260593 29.260593z" p-id="9565" fill="#ffffff"></path></svg>