<?xml version="1.0" standalone="no"?><!DOCTYPE svg PUBLIC "-//W3C//DTD SVG 1.1//EN" "http://www.w3.org/Graphics/SVG/1.1/DTD/svg11.dtd"><svg t="1563851814120" class="icon" viewBox="0 0 1024 1024" version="1.1" xmlns="http://www.w3.org/2000/svg" p-id="12018" xmlns:xlink="http://www.w3.org/1999/xlink" width="64" height="64"><defs><style type="text/css"></style></defs><path d="M862.1 64H162c-35.2 0-64 28.8-64 64v768c0 35.2 28.8 64 64 64h700c35.2 0 64-28.8 64-64V128c0.1-35.2-28.7-64-63.9-64zM786 358.5c-25.2 128.8-138.6 226-274.8 226-136.4 0-250-97.6-274.9-226.7-22.1-10.1-37.5-32.4-37.5-58.3 0-35.3 28.7-64 64-64s64 28.7 64 64c0 21.3-10.4 40.2-26.5 51.8 21.4 96.8 107.7 169.2 210.9 169.2 103.6 0 190.1-72.9 211.1-170.1-15.3-11.7-25.2-30.1-25.2-50.9 0-35.3 28.7-64 64-64s64 28.7 64 64c0.1 26.5-16 49.3-39.1 59z" p-id="12019" fill="#515151"></path></svg>