<?xml version="1.0" standalone="no"?><!DOCTYPE svg PUBLIC "-//W3C//DTD SVG 1.1//EN" "http://www.w3.org/Graphics/SVG/1.1/DTD/svg11.dtd"><svg t="1563851762990" class="icon" viewBox="0 0 1025 1024" version="1.1" xmlns="http://www.w3.org/2000/svg" p-id="11248" xmlns:xlink="http://www.w3.org/1999/xlink" width="64.0625" height="64"><defs><style type="text/css"></style></defs><path d="M445.952 206.336L295.424 33.28H124.416l151.04 173.056h170.496z m443.904 0L738.816 33.28H567.808l151.04 173.056h171.008z m-221.696 0L517.12 33.28H346.112l151.04 173.056H668.16zM954.368 33.28H790.016l151.04 173.056h79.872V98.304c-0.512-36.864-29.184-65.024-66.56-65.024z m-881.152 0H66.56C28.672 33.28 0 61.44 0 98.304v108.032h224.256L73.216 33.28zM0.512 920.576c0 36.864 28.672 65.024 66.56 65.024h887.296c37.888 0 66.56-28.16 66.56-65.024v-670.72H0.512v670.72z m354.816-476.16c0-36.864 31.232-54.272 66.56-54.272 11.264 0 24.576 2.048 35.328 8.704l252.928 142.848c44.544 23.552 44.544 84.48 0 108.032L457.216 792.576c-11.264 6.656-22.016 8.704-35.328 8.704-35.328 0-66.56-17.408-66.56-54.272V444.416z" fill="#515151" p-id="11249"></path></svg>